HIERARCHY
ROOT Hips
{
  OFFSET 49.1705 95.6997 11.3552
  CHANNELS 6 Xposition Yposition Zposition Zrotation Xrotation Yrotation
  JOINT spine
  {
    OFFSET 0 7.96568 0.458067
    CHANNELS 3 Zrotation Xrotation Yrotation
    JOINT spine1
    {
      OFFSET 0 10.2431 0
      CHANNELS 3 Zrotation Xrotation Yrotation
      JOINT spine2
      {
        OFFSET 0 9.81475 0
        CHANNELS 3 Zrotation Xrotation Yrotation
        JOINT Neck
        {
          OFFSET 0 25.1986 1.20138
          CHANNELS 3 Zrotation Xrotation Yrotation
          JOINT Head
          {
            OFFSET 0 7.61315 0
            CHANNELS 3 Zrotation Xrotation Yrotation
            End Site
            {
              OFFSET 0 18.4281 -6.07732
            }
          }
        }
        JOINT RightShoulder
        {
          OFFSET -4.1327 10.5992 -0.575451
          CHANNELS 3 Zrotation Xrotation Yrotation
          JOINT RightArm
          {
            OFFSET 0 13.9018 0
            CHANNELS 3 Zrotation Xrotation Yrotation
            JOINT RightArmRoll
            {
              OFFSET 0 7.01789 0
              CHANNELS 3 Zrotation Xrotation Yrotation
              JOINT RightForeArm
              {
                OFFSET 0 20.4406 0
                CHANNELS 3 Zrotation Xrotation Yrotation
                JOINT RightForeArmRoll
                {
                  OFFSET 0 7.87516 0
                  CHANNELS 3 Zrotation Xrotation Yrotation
                  JOINT RightHand
                  {
                    OFFSET 0 15.8037 0
                    CHANNELS 3 Zrotation Xrotation Yrotation
                    End Site
                    {
                      OFFSET 0 0 0
                    }
                  }
                }
              }
            }
          }
        }
        JOINT LeftShoulder
        {
          OFFSET 4.1327 10.5992 -0.575451
          CHANNELS 3 Zrotation Xrotation Yrotation
          JOINT LeftArm
          {
            OFFSET 0 13.9018 0
            CHANNELS 3 Zrotation Xrotation Yrotation
            JOINT LeftArmRoll
            {
              OFFSET 0 7.01788 0
              CHANNELS 3 Zrotation Xrotation Yrotation
              JOINT LeftForeArm
              {
                OFFSET 0 20.4406 0
                CHANNELS 3 Zrotation Xrotation Yrotation
                JOINT LeftForeArmRoll
                {
                  OFFSET 0 7.87515 0
                  CHANNELS 3 Zrotation Xrotation Yrotation
                  JOINT LeftHand
                  {
                    OFFSET 0 15.8037 0
                    CHANNELS 3 Zrotation Xrotation Yrotation
                    End Site
                    {
                      OFFSET 0 0 0
                    }
                  }
                }
              }
            }
          }
        }
      }
    }
  }
  JOINT RightUpLeg
  {
    OFFSET -7.06048 -1.2947 -1.0861
    CHANNELS 3 Zrotation Xrotation Yrotation
    JOINT RightUpLegRoll
    {
      OFFSET 0 18.5308 0
      CHANNELS 3 Zrotation Xrotation Yrotation
      JOINT RightLeg
      {
        OFFSET 0 -22.9476 0
        CHANNELS 3 Zrotation Xrotation Yrotation
        JOINT RightLegRoll
        {
          OFFSET 0 23.0226 0
          CHANNELS 3 Zrotation Xrotation Yrotation
          JOINT RightFoot
          {
            OFFSET 0 19.1625 0
            CHANNELS 3 Zrotation Xrotation Yrotation
            JOINT RightToeBase
            {
              OFFSET 0 16.0188 0
              CHANNELS 3 Zrotation Xrotation Yrotation
              End Site
              {
                OFFSET 0.00678979 7.75783 -0.894206
              }
            }
          }
        }
      }
    }
  }
  JOINT LeftUpLeg
  {
    OFFSET 7.06048 -1.2947 -1.0861
    CHANNELS 3 Zrotation Xrotation Yrotation
    JOINT LeftUpLegRoll
    {
      OFFSET 0 18.5309 0
      CHANNELS 3 Zrotation Xrotation Yrotation
      JOINT LeftLeg
      {
        OFFSET 0 22.9475 0
        CHANNELS 3 Zrotation Xrotation Yrotation
        JOINT LeftLegRoll
        {
          OFFSET 0 23.2355 0
          CHANNELS 3 Zrotation Xrotation Yrotation
          JOINT LeftFoot
          {
            OFFSET 0 18.9496 0
            CHANNELS 3 Zrotation Xrotation Yrotation
            JOINT LeftToeBase
            {
              OFFSET 0 16.0188 0
              CHANNELS 3 Zrotation Xrotation Yrotation
              End Site
              {
                OFFSET -0.0304289 7.75781 -0.894207
              }
            }
          }
        }
      }
    }
  }
}
MOTION
Frames: 9
Frame Time: 0.00208333
49.0912 95.5443 8.21043 -2.42911 -4.76554 -4.46485 0.875133 -1.44196 0.0502308 1.73578 1.12134 0.00867305 1.73682 2.76597 -0.0204456 0.543936 23.9968 13.4939 -6.24845 -8.91283 12.5094 65.3643 6.46833 2.653 105.28 5.81317 -27.5291 2.66155e-006 8.02509e-007 -9.31062e-006 30.6258 61.9141 -21.2179 -1.03841e-005 -3.56178e-007 -3.00708 8.02884 -4.95144 0.697648 -74.5388 -2.02408 2.72341 -95.3497 7.26069 34.0117 2.59898e-007 -1.02193e-006 -7.84732e-006 -40.6557 65.0235 30.1914 1.29885e-005 9.38196e-006 3.00345 -8.02893 -4.95104 -0.697405 177.555 -4.80967 -2.81156 180 7.01516e-015 178.794 177.844 4.42243 179.582 3.25841e-006 3.62992e-006 0.0489517 -18.8339 67.9568 19.4872 8.13318 25.2359 -3.48229 -171.578 -4.41959 -1.50151 4.5067e-006 -1.99009e-005 -1.22691 -2.12977 -10.31 0.0681211 -8.98146e-007 -4.95399e-006 -0.331107 23.2943 72.474 -24.2156 -8.1361 25.2884 3.41232 
49.078 95.5403 8.22309 -2.43668 -4.75975 -4.47174 0.875731 -1.44338 0.0498724 1.73802 1.11833 0.00803694 1.73907 2.76296 -0.0211158 0.553373 24.0113 13.4764 -6.26295 -8.92607 12.4918 65.3817 6.46225 2.64651 105.231 5.80461 -27.5855 2.66155e-006 8.02509e-007 -9.31062e-006 30.636 61.9856 -21.2543 -1.03841e-005 -3.56178e-007 -3.00708 8.02884 -4.95144 0.697648 -74.5325 -2.0105 2.71685 -95.352 7.23879 34.0288 2.59898e-007 -1.02193e-006 -7.84732e-006 -40.6759 65.0339 30.211 1.29885e-005 9.38196e-006 3.00345 -8.02893 -4.95104 -0.697405 177.569 -4.81448 -2.81925 180 7.01516e-015 178.794 177.844 4.41611 179.582 3.25841e-006 3.62992e-006 0.0489517 -18.8352 67.9583 19.4886 8.13318 25.2359 -3.48229 -171.562 -4.42242 -1.51089 4.5067e-006 -1.99009e-005 -1.22646 -2.12988 -10.3104 0.0680689 -8.98145e-007 -4.95399e-006 -0.331079 23.3013 72.4791 -24.223 -8.13614 25.289 3.4113 
49.0659 95.5414 8.2288 -2.44413 -4.75389 -4.47859 0.876266 -1.44476 0.0494905 1.74017 1.1154 0.00739156 1.74123 2.76003 -0.0217937 0.562092 24.0263 13.4588 -6.27646 -8.94024 12.474 65.3989 6.45611 2.64003 105.184 5.79602 -27.6418 2.66155e-006 8.02509e-007 -9.31062e-006 30.6466 62.0567 -21.2909 -1.03841e-005 -3.56178e-007 -3.00708 8.02884 -4.95144 0.697648 -74.5259 -1.99734 2.71046 -95.3547 7.21703 34.0458 2.59898e-007 -1.02193e-006 -7.84732e-006 -40.6967 65.043 30.23 1.29885e-005 9.38196e-006 3.00345 -8.02893 -4.95104 -0.697405 177.583 -4.81925 -2.82694 180 7.01516e-015 178.794 177.844 4.40973 179.581 3.25841e-006 3.62992e-006 0.0489517 -18.8365 67.9598 19.49 8.13318 25.2359 -3.48229 -171.546 -4.4253 -1.52011 4.5067e-006 -1.99009e-005 -1.22601 -2.12991 -10.3104 0.0680351 -8.98145e-007 -4.95399e-006 -0.331037 23.3081 72.484 -24.2301 -8.13619 25.2897 3.41029 
49.0512 95.541 8.235 -2.45148 -4.74799 -4.48542 0.876757 -1.4461 0.0490922 1.74226 1.11252 0.00673969 1.74333 2.75715 -0.0224769 0.570312 24.0416 13.441 -6.28929 -8.95506 12.4559 65.416 6.44993 2.63354 105.137 5.78739 -27.6982 2.66155e-006 8.02509e-007 -9.31062e-006 30.6577 62.1275 -21.3277 -1.03841e-005 -3.56178e-007 -3.00708 8.02884 -4.95144 0.697648 -74.519 -1.98449 2.70417 -95.3577 7.19537 34.0626 2.59898e-007 -1.02193e-006 -7.84732e-006 -40.718 65.0511 30.2486 1.29885e-005 9.38196e-006 3.00345 -8.02893 -4.95104 -0.697405 177.598 -4.82398 -2.83462 180 7.01516e-015 178.794 177.843 4.40333 179.581 3.25841e-006 3.62992e-006 0.0489517 -18.8377 67.9614 19.4914 8.13318 25.2359 -3.48229 -171.53 -4.42821 -1.5292 4.5067e-006 -1.99009e-005 -1.22555 -2.12989 -10.3102 0.0680141 -8.98146e-007 -4.95399e-006 -0.330985 23.3148 72.4889 -24.2372 -8.13623 25.2903 3.40929 
49.0347 95.5395 8.242 -2.45879 -4.74206 -4.49224 0.877222 -1.44743 0.0486845 1.74432 1.10968 0.00608411 1.7454 2.7543 -0.0231632 0.57825 24.0571 13.4231 -6.30172 -8.97025 12.4377 65.433 6.44373 2.62705 105.09 5.77875 -27.7546 2.66155e-006 8.02509e-007 -9.31062e-006 30.669 62.1981 -21.3647 -1.03841e-005 -3.56178e-007 -3.00708 8.02884 -4.95144 0.697648 -74.512 -1.97181 2.69796 -95.3608 7.17377 34.0795 2.59898e-007 -1.02193e-006 -7.84732e-006 -40.7395 65.0586 30.267 1.29885e-005 9.38196e-006 3.00345 -8.02893 -4.95104 -0.697405 177.612 -4.82869 -2.84229 180 7.01516e-015 178.794 177.843 4.39689 179.581 3.25841e-006 3.62992e-006 0.0489517 -18.839 67.9629 19.4927 8.13318 25.2359 -3.48229 -171.514 -4.43114 -1.53823 4.5067e-006 -1.99009e-005 -1.2251 -2.12984 -10.3098 0.0680004 -8.98145e-007 -4.95399e-006 -0.330928 23.3214 72.4937 -24.2442 -8.13627 25.2909 3.4083 
49.0177 95.5386 8.25258 -2.46608 -4.73613 -4.49905 0.877681 -1.44876 0.0482744 1.74636 1.10684 0.00542761 1.74745 2.75147 -0.0238502 0.586126 24.0726 13.4053 -6.31407 -8.98554 12.4195 65.4501 6.43752 2.62056 105.043 5.7701 -27.811 2.66155e-006 8.02509e-007 -9.31062e-006 30.6806 62.2687 -21.4019 -1.03841e-005 -3.56178e-007 -3.00708 8.02884 -4.95144 0.697648 -74.5049 -1.95917 2.69176 -95.364 7.15219 34.0963 2.59898e-007 -1.02193e-006 -7.84732e-006 -40.761 65.066 30.2852 1.29885e-005 9.38196e-006 3.00345 -8.02893 -4.95104 -0.697405 177.626 -4.83339 -2.84997 180 7.01516e-015 178.794 177.843 4.39046 179.581 3.25841e-006 3.62992e-006 0.0489517 -18.8403 67.9644 19.4941 8.13318 25.2359 -3.48229 -171.498 -4.43407 -1.54724 4.5067e-006 -1.99009e-005 -1.22464 -2.12979 -10.3095 0.0679885 -8.98146e-007 -4.95399e-006 -0.33087 23.3281 72.4985 -24.2512 -8.13631 25.2915 3.40731 
49.008 95.5414 8.25972 -2.4734 -4.73021 -4.50587 0.878153 -1.4501 0.047869 1.74843 1.10399 0.00477297 1.74952 2.74861 -0.0245357 0.594158 24.088 13.3874 -6.32663 -9.00064 12.4013 65.4671 6.43132 2.61407 104.995 5.76147 -27.8674 2.66155e-006 8.02509e-007 -9.31062e-006 30.6923 62.3393 -21.4393 -1.03841e-005 -3.56178e-007 -3.00708 8.02884 -4.95144 0.697648 -74.498 -1.94644 2.68552 -95.3671 7.1306 34.1132 2.59898e-007 -1.02193e-006 -7.84732e-006 -40.7825 65.0737 30.3037 1.29885e-005 9.38196e-006 3.00345 -8.02893 -4.95104 -0.697405 177.641 -4.83811 -2.85765 180 7.01516e-015 178.794 177.843 4.38402 179.581 3.25841e-006 3.62992e-006 0.0489517 -18.8416 67.9659 19.4955 8.13318 25.2359 -3.48229 -171.483 -4.437 -1.55628 4.5067e-006 -1.99009e-005 -1.22418 -2.12975 -10.3091 0.067973 -8.98146e-007 -4.95399e-006 -0.330814 23.3347 72.5033 -24.2582 -8.13636 25.2922 3.40632 
48.9866 95.553 8.26391 -2.48077 -4.72432 -4.51271 0.878656 -1.45145 0.0474754 1.75054 1.1011 0.00412296 1.75164 2.74572 -0.0252174 0.602562 24.1032 13.3697 -6.33969 -9.01528 12.3833 65.4843 6.42516 2.60759 104.948 5.75285 -27.9238 2.66155e-006 8.02509e-007 -9.31062e-006 30.704 62.4101 -21.4769 -1.03841e-005 -3.56178e-007 -3.00708 8.02884 -4.95144 0.697648 -74.4911 -1.9335 2.67921 -95.3699 7.10895 34.1301 2.59898e-007 -1.02193e-006 -7.84732e-006 -40.8037 65.082 30.3224 1.29885e-005 9.38196e-006 3.00345 -8.02893 -4.95104 -0.697405 177.655 -4.84285 -2.86533 180 7.01516e-015 178.794 177.842 4.37761 179.58 3.25841e-006 3.62992e-006 0.0489517 -18.8428 67.9674 19.4969 8.13318 25.2359 -3.48229 -171.467 -4.4399 -1.56541 4.5067e-006 -1.99009e-005 -1.22373 -2.12975 -10.309 0.0679484 -8.98146e-007 -4.95399e-006 -0.330765 23.3415 72.5082 -24.2653 -8.1364 25.2928 3.40532 
48.9718 95.5505 8.27192 -2.48825 -4.71848 -4.51957 0.87921 -1.45284 0.0471005 1.75271 1.09814 0.00348037 1.75383 2.74277 -0.0258929 0.611558 24.118 13.3521 -6.35356 -9.02917 12.3655 65.5015 6.41903 2.6011 104.9 5.74427 -27.9801 2.66155e-006 8.02509e-007 -9.31062e-006 30.7158 62.4813 -21.5148 -1.03841e-005 -3.56178e-007 -3.00708 8.02884 -4.95144 0.697648 -74.4846 -1.92022 2.67277 -95.3724 7.08719 34.1471 2.59898e-007 -1.02193e-006 -7.84732e-006 -40.8244 65.0915 30.3417 1.29885e-005 9.38196e-006 3.00345 -8.02893 -4.95104 -0.697405 177.669 -4.84763 -2.87302 180 7.01516e-015 178.794 177.842 4.37128 179.58 3.25841e-006 3.62992e-006 0.0489517 -18.8441 67.9689 19.4982 8.13318 25.2359 -3.48229 -171.451 -4.44276 -1.57468 4.5067e-006 -1.99009e-005 -1.22328 -2.1298 -10.3091 0.067909 -8.98146e-007 -4.95399e-006 -0.330727 23.3484 72.5132 -24.2725 -8.13644 25.2934 3.40431 
